# xmcd
#
# Track frame offsets:
#	151
#	15636
#	30725
#	51380
#	69184
#	96487
#	115195
#	128880
#	143230
#	154353
#	168644
#	181217
#	195103
#	208575
#	228678
#	245254
#
# Disc length: 3485 seconds
#
# Revision: 0
# Processed by: cddbd v1.5.2PL0 Copyright (c) Steve Scherf et al.
# Submitted via: audiograbber 1.83.01
#
DISCID=df0d9b10
DTITLE=Allen Fontenot - Cajun Favorites
DYEAR=1900
DGENRE=Country
TTITLE0=Lacassine Special
TTITLE1=Cajun Eyes Waltz
TTITLE2=Cajun from Churchpoint
TTITLE3=The Backdoor
TTITLE4=Zydeco Jam
TTITLE5=Don't mess with my Toot Toot
TTITLE6=Chere Duloon
TTITLE7=La Valse de Valseur
TTITLE8=Do do wapp song "Hei little girl"
TTITLE9=Old 99 Waltz
TTITLE10=La Veuve de la ville platte
TTITLE11=Louisiana Moon
TTITLE12=Webb Pierce Blues
TTITLE13=Just one day at a time
TTITLE14=Cajun teenage Wedding
TTITLE15=Colinda
EXTD=
EXTT0=
EXTT1=
EXTT2=
EXTT3=
EXTT4=
EXTT5=
EXTT6=
EXTT7=
EXTT8=
EXTT9=
EXTT10=
EXTT11=
EXTT12=
EXTT13=
EXTT14=
EXTT15=
PLAYORDER=
